<?xml version="1.0" encoding="iso-8859-1"?>
<!-- Uploaded to: SVG Repo, www.svgrepo.com, Generator: SVG Repo Mixer Tools -->
<!DOCTYPE svg PUBLIC "-//W3C//DTD SVG 1.1//EN" "http://www.w3.org/Graphics/SVG/1.1/DTD/svg11.dtd">
<svg fill="#000000" version="1.1" id="Capa_1" xmlns="http://www.w3.org/2000/svg" xmlns:xlink="http://www.w3.org/1999/xlink" 
	 width="800px" height="800px" viewBox="0 0 584.332 584.332"
	 xml:space="preserve">
<g>
	<g>
		<path d="M530.33,42.289H54.003C24.176,42.289,0,66.464,0,96.29v192.751c0,29.827,24.176,54.003,54.003,54.003h102.532
			L138.39,481.137c-2.026,15.38,2.683,30.893,12.907,42.552c10.214,11.659,24.984,18.354,40.506,18.354h200.738
			c15.521,0,30.291-6.695,40.496-18.346c10.234-11.669,14.941-27.181,12.926-42.562l-18.166-138.094h102.531
			c29.828,0,54.004-24.176,54.004-54.003V96.288C584.334,66.464,560.158,42.289,530.33,42.289z M70.606,144.374
			c-17.481,0-31.651-14.169-31.651-31.65s14.17-31.653,31.651-31.653c17.48,0,31.65,14.17,31.65,31.653
			C102.259,130.205,88.089,144.374,70.606,144.374z M403.754,498.008c-2.832,3.233-6.914,5.077-11.213,5.077H191.803
			c-4.298,0-8.378-1.844-11.222-5.088c-2.825-3.225-4.127-7.523-3.568-11.782l25.459-193.691h179.399l25.471,193.69
			C407.893,490.474,406.588,494.773,403.754,498.008z M454.723,277.599c0,20.82-11.907,38.767-29.264,47.659l-9.408-71.547
			c-0.057-0.428-0.219-0.828-0.285-1.256v-38.421c0-8.228-6.694-14.923-14.922-14.923H183.469c-8.225,0-14.922,6.695-14.922,14.923
			v38.507c-0.057,0.4-0.208,0.761-0.268,1.171l-9.406,71.558c-17.356-8.892-29.282-26.839-29.282-47.669v-63.566
			c0-29.71,24.166-53.878,53.878-53.878h217.375c29.711,0,53.879,24.166,53.879,53.878V277.599L454.723,277.599z"/>
	</g>
</g>
</svg>